<?xml version="1.0" encoding="UTF-8" standalone="no" ?>
<!DOCTYPE svg PUBLIC "-//W3C//DTD SVG 1.1//EN" "http://www.w3.org/Graphics/SVG/1.1/DTD/svg11.dtd">
<svg xmlns="http://www.w3.org/2000/svg" xmlns:xlink="http://www.w3.org/1999/xlink" version="1.1" width="1080" height="1080" viewBox="0 0 1080 1080" xml:space="preserve">
<desc>Created with Fabric.js 5.2.4</desc>
<defs>
</defs>
<g transform="matrix(1 0 0 1 540 540)" id="cb7cf062-16de-436e-a3ba-9f135a940573"  >
<rect style="stroke: none; stroke-width: 1; stroke-dasharray: none; stroke-linecap: butt; stroke-dashoffset: 0; stroke-linejoin: miter; stroke-miterlimit: 4; fill: rgb(255,255,255); fill-rule: nonzero; opacity: 1; visibility: hidden;" vector-effect="non-scaling-stroke"  x="-540" y="-540" rx="0" ry="0" width="1080" height="1080" />
</g>
<g transform="matrix(1 0 0 1 540 540)" id="dfb552a0-53d9-45c1-95c0-6f9f0e155447"  >
</g>
<g transform="matrix(72 0 0 72 540 540)"  >
<g style=""   >
		<g transform="matrix(1 0 0 1 3.19 2.5)" clip-path="url(#CLIPPATH_3)"  >
<clipPath id="CLIPPATH_3" >
	<rect transform="matrix(1 0 0 1 -3.4 -2.5)" id="clip0_9494_69309" x="-7" y="-7" rx="0" ry="0" width="14" height="14" />
</clipPath>
<path style="stroke: none; stroke-width: 1; stroke-dasharray: none; stroke-linecap: butt; stroke-dashoffset: 0; stroke-linejoin: miter; stroke-miterlimit: 4; fill: rgb(107,114,128); fill-rule: nonzero; opacity: 1;" vector-effect="non-scaling-stroke"  transform=" translate(-10.69, -9.5)" d="M 8.4129 12.71 C 8.34261 12.8852 8.17283 13 7.98407 13 C 7.65462 13 7.43101 12.6651 7.5573 12.3608 L 10.0079 6.45676 C 10.1226 6.18024 10.3926 6 10.692 6 C 10.9914 6 11.2613 6.18024 11.3761 6.45676 L 13.8267 12.3608 C 13.953 12.6651 13.7294 13 13.3999 13 C 13.2112 13 13.0414 12.8852 12.9711 12.71 L 10.7344 7.13611 C 10.7275 7.11878 10.7107 7.10742 10.692 7.10742 C 10.6733 7.10742 10.6565 7.11878 10.6496 7.13611 L 8.4129 12.71 Z M 8.66745 10.6416 C 8.66745 10.434 8.83578 10.2656 9.04342 10.2656 L 12.3406 10.2656 C 12.5482 10.2656 12.7165 10.434 12.7165 10.6416 C 12.7165 10.8492 12.5482 11.0176 12.3406 11.0176 L 9.04342 11.0176 C 8.83578 11.0176 8.66745 10.8492 8.66745 10.6416 Z" stroke-linecap="round" />
</g>
		<g transform="matrix(1 0 0 1 -2.8 -3)" clip-path="url(#CLIPPATH_4)"  >
<clipPath id="CLIPPATH_4" >
	<rect transform="matrix(1 0 0 1 2.6 3)" id="clip0_9494_69309" x="-7" y="-7" rx="0" ry="0" width="14" height="14" />
</clipPath>
<path style="stroke: none; stroke-width: 1; stroke-dasharray: none; stroke-linecap: butt; stroke-dashoffset: 0; stroke-linejoin: miter; stroke-miterlimit: 4; fill: rgb(107,114,128); fill-rule: nonzero; opacity: 1;" vector-effect="non-scaling-stroke"  transform=" translate(-4.7, -4)" d="M 8.75662 1 C 8.94575 1 9.09907 1.15332 9.09907 1.34244 C 9.09907 1.53157 8.94575 1.68489 8.75662 1.68489 L 8.0862 1.68489 L 8.0862 6.54228 C 8.0862 6.79507 7.88128 7 7.62848 7 C 7.45399 7 7.29663 6.8996 7.2092 6.74859 C 7.0493 6.47242 6.86254 6.22503 6.64891 6.00643 C 6.37238 5.71704 6.07656 5.46945 5.76145 5.26367 L 6.0026 4.62701 C 6.24698 4.76849 6.50099 4.96141 6.76466 5.20579 C 7.02833 5.45016 7.2309 5.69775 7.37238 5.94855 C 7.36595 5.85209 7.35952 5.76206 7.35309 5.67846 C 7.35309 5.59485 7.34987 5.50804 7.34344 5.41801 C 7.34344 5.32797 7.34344 5.23151 7.34344 5.12862 L 7.34344 1.68489 L 0.634436 1.68489 C 0.445309 1.68489 0.291992 1.53157 0.291992 1.34244 C 0.291992 1.15332 0.44531 1 0.634436 1 L 8.75662 1 Z M 4.01546 6.12219 C 3.57817 6.12219 3.16016 6.01929 2.76145 5.8135 C 2.36273 5.60772 1.98653 5.26045 1.63283 4.7717 C 1.33459 4.34644 1.05532 3.78598 0.795026 3.09035 C 0.722542 2.89664 0.82885 2.68352 1.02533 2.61892 C 1.21787 2.55562 1.42501 2.65882 1.49615 2.8486 C 1.68952 3.36445 1.88942 3.7997 2.09585 4.15434 C 2.35309 4.57878 2.63926 4.89068 2.95437 5.09003 C 3.26948 5.28939 3.62961 5.38907 4.03476 5.38907 C 4.38845 5.38907 4.67141 5.3344 4.88363 5.22508 C 5.10228 5.10932 5.25984 4.95498 5.3563 4.76206 C 5.45276 4.5627 5.501 4.34405 5.501 4.10611 C 5.501 3.73312 5.3981 3.43087 5.19231 3.19936 C 4.99296 2.96785 4.74215 2.85209 4.4399 2.85209 C 4.22768 2.85209 4.06691 2.90032 3.95759 2.99678 C 3.84826 3.08682 3.7936 3.22508 3.7936 3.41158 C 3.7936 3.45659 3.80003 3.51768 3.81289 3.59486 C 3.83172 3.70781 3.76689 3.82758 3.65455 3.84975 L 3.44714 3.89069 C 3.27022 3.9256 3.09239 3.82419 3.04741 3.64955 C 3.04177 3.62763 3.03648 3.60618 3.03154 3.58521 C 3.01225 3.46945 3.0026 3.36013 3.0026 3.25723 C 3.0026 3.01929 3.06691 2.81994 3.19553 2.65916 C 3.33058 2.49839 3.50099 2.37942 3.70678 2.30225 C 3.919 2.21865 4.14087 2.17685 4.37238 2.17685 C 4.7518 2.17685 5.07977 2.26367 5.3563 2.4373 C 5.63283 2.6045 5.84826 2.83601 6.0026 3.13183 C 6.15694 3.42765 6.23411 3.7717 6.23411 4.16399 C 6.23411 4.51125 6.15373 4.83601 5.99296 5.13826 C 5.83219 5.43408 5.58781 5.67203 5.25984 5.85209 C 4.93186 6.03215 4.51707 6.12219 4.01546 6.12219 Z M 3.70678 2.51447 C 3.67463 2.30868 3.57817 2.12862 3.41739 1.97428 C 3.26305 1.8135 3.03476 1.70096 2.73251 1.63666 L 2.96402 1.20257 L 3.3981 1.31833 C 3.76466 1.45981 4.02833 1.62058 4.1891 1.80064 C 4.34987 1.98071 4.44312 2.209 4.46884 2.48553 L 3.70678 2.51447 Z" stroke-linecap="round" />
</g>
</g>
</g>
</svg>